<?xml version="1.0" encoding="utf-8"?>
<!-- Generator: Adobe Illustrator 16.0.0, SVG Export Plug-In . SVG Version: 6.00 Build 0)  -->
<!DOCTYPE svg PUBLIC "-//W3C//DTD SVG 1.1//EN" "http://www.w3.org/Graphics/SVG/1.1/DTD/svg11.dtd">
<svg version="1.1" id="Layer_1" xmlns="http://www.w3.org/2000/svg" xmlns:xlink="http://www.w3.org/1999/xlink" x="0px" y="0px"
	 width="254.5px" height="119.75px" viewBox="0 0 254.5 119.75" enable-background="new 0 0 254.5 119.75" xml:space="preserve">
<path fill="#0071BC" d="M87.081,56.146c0.418,0.34,0.774,0.749,1.079,1.207c14.182-20.764,38.676-40.438,64.184-51.343
	c-26.057,8.742-52.273,27.915-68.158,48.84c0.154,0.033,0.321,0.05,0.47,0.089C85.587,55.186,86.403,55.592,87.081,56.146z
	 M78.544,75.835c-0.614-0.062-1.221-0.153-1.807-0.319c-0.96-0.271-1.821-0.713-2.557-1.312c-0.345-0.28-0.655-0.603-0.936-0.958
	c-0.362,0.854-0.706,1.703-1.024,2.553c-9.364,24.949,5.114,41.952,30.447,37.952C82.05,114.077,70.722,98.34,78.544,75.835z"/>
<g enable-background="new    ">
	<path fill="#0071BC" d="M7.432,70.814c0.3,0.601,0.696,1.08,1.188,1.44c0.492,0.359,1.056,0.612,1.692,0.756
		c0.636,0.144,1.278,0.216,1.926,0.216c0.504,0,1.032-0.065,1.584-0.198c0.552-0.131,1.056-0.335,1.512-0.611
		c0.456-0.276,0.833-0.63,1.134-1.062c0.3-0.432,0.45-0.947,0.45-1.548c0-0.624-0.15-1.14-0.45-1.548
		c-0.3-0.408-0.684-0.762-1.152-1.062c-0.468-0.3-1.002-0.563-1.602-0.792c-0.6-0.228-1.2-0.461-1.8-0.701
		c-0.6-0.24-1.2-0.498-1.8-0.774c-0.6-0.275-1.134-0.612-1.602-1.008c-0.468-0.396-0.846-0.864-1.134-1.404
		s-0.432-1.193-0.432-1.962c0-0.912,0.216-1.686,0.648-2.322c0.432-0.636,0.983-1.157,1.656-1.565
		c0.671-0.408,1.416-0.708,2.232-0.9c0.816-0.191,1.596-0.288,2.34-0.288c0.984,0,1.884,0.108,2.7,0.324
		c0.815,0.216,1.518,0.564,2.106,1.044c0.588,0.48,1.044,1.098,1.368,1.854c0.324,0.756,0.474,1.674,0.45,2.754h-2.268
		c0.047-0.721-0.036-1.332-0.252-1.836c-0.216-0.505-0.522-0.924-0.918-1.261c-0.396-0.336-0.87-0.581-1.422-0.737
		c-0.552-0.156-1.14-0.234-1.764-0.234c-0.504,0-1.026,0.049-1.566,0.144c-0.54,0.097-1.032,0.259-1.476,0.486
		c-0.444,0.229-0.816,0.546-1.116,0.954c-0.3,0.408-0.45,0.936-0.45,1.584c0,0.432,0.108,0.816,0.324,1.152
		c0.216,0.336,0.504,0.636,0.864,0.899c0.36,0.265,0.774,0.504,1.242,0.721c0.468,0.216,0.966,0.432,1.494,0.647
		c0.648,0.265,1.326,0.534,2.034,0.811c0.708,0.275,1.356,0.618,1.944,1.025c0.587,0.408,1.08,0.9,1.476,1.477
		c0.396,0.575,0.594,1.296,0.594,2.159c0,1.057-0.222,1.944-0.666,2.664c-0.444,0.721-1.026,1.303-1.746,1.746
		c-0.72,0.444-1.524,0.762-2.412,0.954c-0.888,0.192-1.776,0.288-2.664,0.288c-0.913,0-1.794-0.12-2.646-0.36
		c-0.852-0.239-1.602-0.623-2.25-1.151c-0.648-0.527-1.164-1.206-1.548-2.034c-0.384-0.828-0.552-1.83-0.504-3.006h2.232
		C6.981,69.459,7.131,70.215,7.432,70.814z"/>
</g>
<g enable-background="new    ">
	<path d="M25.521,56.019l1.476,15.84h0.072l7.668-15.84h2.664l1.26,15.696h0.072l7.884-15.696h2.412l-9.756,18.576h-2.448
		l-1.332-15.588h-0.072l-7.632,15.588h-2.484l-2.16-18.576H25.521z"/>
	<path d="M54.609,56.019l-3.996,18.576h-2.232l3.96-18.576H54.609z M56.157,48.891l-0.792,3.636h-2.268l0.792-3.636H56.157z"/>
	<path d="M58.083,70.814c0.3,0.601,0.696,1.08,1.188,1.44c0.492,0.359,1.056,0.612,1.692,0.756c0.636,0.144,1.278,0.216,1.926,0.216
		c0.504,0,1.032-0.065,1.584-0.198c0.552-0.131,1.056-0.335,1.512-0.611c0.456-0.276,0.833-0.63,1.134-1.062
		c0.3-0.432,0.45-0.947,0.45-1.548c0-0.624-0.15-1.14-0.45-1.548c-0.3-0.408-0.684-0.762-1.152-1.062
		c-0.468-0.3-1.002-0.563-1.602-0.792c-0.6-0.228-1.2-0.461-1.8-0.701c-0.6-0.24-1.2-0.498-1.8-0.774
		c-0.6-0.275-1.134-0.612-1.602-1.008c-0.468-0.396-0.846-0.864-1.134-1.404s-0.432-1.193-0.432-1.962
		c0-0.912,0.216-1.686,0.648-2.322c0.432-0.636,0.983-1.157,1.656-1.565c0.671-0.408,1.416-0.708,2.232-0.9
		c0.816-0.191,1.596-0.288,2.34-0.288c0.984,0,1.884,0.108,2.7,0.324c0.815,0.216,1.518,0.564,2.106,1.044
		c0.588,0.48,1.044,1.098,1.368,1.854c0.324,0.756,0.474,1.674,0.45,2.754h-2.268c0.047-0.721-0.036-1.332-0.252-1.836
		c-0.216-0.505-0.522-0.924-0.918-1.261c-0.396-0.336-0.87-0.581-1.422-0.737c-0.552-0.156-1.14-0.234-1.764-0.234
		c-0.504,0-1.026,0.049-1.566,0.144c-0.54,0.097-1.032,0.259-1.476,0.486c-0.444,0.229-0.816,0.546-1.116,0.954
		c-0.3,0.408-0.45,0.936-0.45,1.584c0,0.432,0.108,0.816,0.324,1.152c0.216,0.336,0.504,0.636,0.864,0.899
		c0.36,0.265,0.774,0.504,1.242,0.721c0.468,0.216,0.966,0.432,1.494,0.647c0.648,0.265,1.326,0.534,2.034,0.811
		c0.708,0.275,1.356,0.618,1.944,1.025c0.587,0.408,1.08,0.9,1.476,1.477c0.396,0.575,0.594,1.296,0.594,2.159
		c0,1.057-0.222,1.944-0.666,2.664c-0.444,0.721-1.026,1.303-1.746,1.746c-0.72,0.444-1.524,0.762-2.412,0.954
		c-0.888,0.192-1.776,0.288-2.664,0.288c-0.913,0-1.794-0.12-2.646-0.36c-0.852-0.239-1.602-0.623-2.25-1.151
		c-0.648-0.527-1.164-1.206-1.548-2.034c-0.384-0.828-0.552-1.83-0.504-3.006h2.232C57.633,69.459,57.783,70.215,58.083,70.814z"/>
	<path d="M75.398,70.814c0.3,0.601,0.696,1.08,1.188,1.44c0.492,0.359,1.056,0.612,1.692,0.756c0.636,0.144,1.278,0.216,1.926,0.216
		c0.504,0,1.032-0.065,1.584-0.198c0.552-0.131,1.056-0.335,1.512-0.611c0.456-0.276,0.833-0.63,1.134-1.062
		c0.3-0.432,0.45-0.947,0.45-1.548c0-0.624-0.15-1.14-0.45-1.548c-0.3-0.408-0.684-0.762-1.152-1.062
		c-0.468-0.3-1.002-0.563-1.602-0.792c-0.6-0.228-1.2-0.461-1.8-0.701c-0.6-0.24-1.2-0.498-1.8-0.774
		c-0.6-0.275-1.134-0.612-1.602-1.008c-0.468-0.396-0.846-0.864-1.134-1.404s-0.432-1.193-0.432-1.962
		c0-0.912,0.216-1.686,0.648-2.322c0.432-0.636,0.983-1.157,1.656-1.565c0.671-0.408,1.416-0.708,2.232-0.9
		c0.816-0.191,1.596-0.288,2.34-0.288c0.984,0,1.884,0.108,2.7,0.324c0.815,0.216,1.518,0.564,2.106,1.044
		c0.588,0.48,1.044,1.098,1.368,1.854c0.324,0.756,0.474,1.674,0.45,2.754h-2.268c0.047-0.721-0.036-1.332-0.252-1.836
		c-0.216-0.505-0.522-0.924-0.918-1.261c-0.396-0.336-0.87-0.581-1.422-0.737c-0.552-0.156-1.14-0.234-1.764-0.234
		c-0.504,0-1.026,0.049-1.566,0.144c-0.54,0.097-1.032,0.259-1.476,0.486c-0.444,0.229-0.816,0.546-1.116,0.954
		c-0.3,0.408-0.45,0.936-0.45,1.584c0,0.432,0.108,0.816,0.324,1.152c0.216,0.336,0.504,0.636,0.864,0.899
		c0.36,0.265,0.774,0.504,1.242,0.721c0.468,0.216,0.966,0.432,1.494,0.647c0.648,0.265,1.326,0.534,2.034,0.811
		c0.708,0.275,1.356,0.618,1.944,1.025c0.587,0.408,1.08,0.9,1.476,1.477c0.396,0.575,0.594,1.296,0.594,2.159
		c0,1.057-0.222,1.944-0.666,2.664c-0.444,0.721-1.026,1.303-1.746,1.746c-0.72,0.444-1.524,0.762-2.412,0.954
		c-0.888,0.192-1.776,0.288-2.664,0.288c-0.913,0-1.794-0.12-2.646-0.36c-0.852-0.239-1.602-0.623-2.25-1.151
		c-0.648-0.527-1.164-1.206-1.548-2.034c-0.384-0.828-0.552-1.83-0.504-3.006h2.232C74.948,69.459,75.098,70.215,75.398,70.814z"/>
	<path d="M100.868,63.65l-0.432,2.088H91.4l0.432-2.088H100.868z"/>
</g>
<g enable-background="new    ">
	<path d="M127.955,40.572c1.312,0,2.521,0.192,3.625,0.576c1.104,0.385,2.063,0.937,2.879,1.656c0.816,0.72,1.456,1.608,1.92,2.664
		s0.697,2.24,0.697,3.552c0,1.761-0.297,3.336-0.889,4.729c-0.592,1.392-1.408,2.561-2.447,3.504
		c-1.041,0.944-2.281,1.664-3.721,2.16s-3.024,0.743-4.752,0.743h-12.096l-3.168,14.688h-3.264l7.392-34.272H127.955z
		 M125.363,57.373c1.184,0,2.288-0.176,3.312-0.528c1.023-0.352,1.92-0.864,2.688-1.536s1.368-1.495,1.801-2.472
		c0.432-0.976,0.647-2.088,0.647-3.336c0-1.152-0.168-2.12-0.504-2.904s-0.809-1.416-1.416-1.896
		c-0.608-0.48-1.337-0.824-2.185-1.032s-1.799-0.312-2.855-0.312h-10.032l-3.024,14.017H125.363z"/>
</g>
<g enable-background="new    ">
	<path fill="#0071BC" d="M143.17,40.572l4.368,31.488h0.097l17.567-31.488h3.552l-19.775,34.272h-3.792l-5.376-34.272H143.17z"/>
</g>
<g enable-background="new    ">
	<path d="M183.924,40.572c2.463,0,4.527,0.329,6.191,0.984c1.664,0.656,3.008,1.584,4.032,2.784s1.752,2.64,2.185,4.32
		c0.432,1.68,0.647,3.56,0.647,5.64c0,2.688-0.4,5.272-1.2,7.752c-0.8,2.48-1.992,4.673-3.576,6.576
		c-1.584,1.904-3.544,3.416-5.879,4.536c-2.337,1.12-5.041,1.68-8.113,1.68h-12.768l7.44-34.272H183.924z M177.588,72.061
		c2.848,0.032,5.287-0.463,7.32-1.488c2.031-1.023,3.703-2.392,5.016-4.104c1.312-1.712,2.271-3.68,2.88-5.904
		c0.607-2.224,0.912-4.52,0.912-6.888c0-6.88-3.44-10.32-10.32-10.32h-7.823l-6.24,28.704H177.588z"/>
</g>
<g enable-background="new    ">
	<path d="M110.091,86.965c0.9,0.324,1.674,0.798,2.322,1.422s1.152,1.386,1.512,2.286c0.36,0.899,0.54,1.926,0.54,3.078
		c0,1.561-0.216,3.084-0.648,4.571c-0.432,1.489-1.074,2.809-1.926,3.961c-0.852,1.151-1.92,2.076-3.204,2.771
		c-1.284,0.696-2.79,1.044-4.518,1.044c-2.4,0-4.236-0.695-5.508-2.088c-1.272-1.392-1.908-3.264-1.908-5.616
		c0-1.512,0.228-2.988,0.684-4.428c0.456-1.44,1.128-2.712,2.016-3.816c0.888-1.104,1.974-1.991,3.258-2.664
		c1.284-0.671,2.754-1.008,4.41-1.008C108.202,86.479,109.191,86.641,110.091,86.965z M107.896,103.272
		c0.948-0.636,1.74-1.445,2.376-2.43c0.636-0.983,1.116-2.063,1.44-3.24c0.324-1.176,0.486-2.304,0.486-3.384
		c0-1.728-0.457-3.132-1.368-4.212c-0.913-1.08-2.28-1.62-4.104-1.62c-1.248,0-2.353,0.306-3.312,0.918
		c-0.96,0.612-1.764,1.393-2.412,2.34c-0.648,0.948-1.14,2.004-1.476,3.168c-0.336,1.165-0.504,2.286-0.504,3.366
		c0,1.8,0.456,3.258,1.368,4.374c0.912,1.116,2.316,1.674,4.212,1.674C105.849,104.227,106.947,103.909,107.896,103.272z"/>
	<path d="M119.416,89.827c0.468-0.769,1.05-1.398,1.746-1.891c0.696-0.491,1.488-0.857,2.376-1.098
		c0.888-0.24,1.824-0.36,2.808-0.36c0.624,0,1.314,0.061,2.07,0.181c0.756,0.12,1.457,0.336,2.105,0.647
		c0.648,0.312,1.188,0.732,1.62,1.26c0.433,0.528,0.647,1.213,0.647,2.053c0,0.456-0.041,0.96-0.125,1.512
		c-0.085,0.552-0.187,1.11-0.307,1.674c-0.12,0.564-0.246,1.116-0.378,1.656s-0.246,1.014-0.342,1.422
		c-0.216,1.032-0.402,1.89-0.558,2.574c-0.156,0.684-0.283,1.254-0.379,1.71s-0.168,0.828-0.215,1.116
		c-0.049,0.287-0.072,0.575-0.072,0.863c0,0.337,0.131,0.547,0.396,0.63c0.264,0.085,0.528,0.126,0.792,0.126
		c0.168,0,0.318-0.005,0.45-0.018c0.132-0.012,0.282-0.03,0.45-0.054l-0.324,1.764c-0.6,0.12-1.225,0.18-1.872,0.18
		c-1.272,0-1.933-0.659-1.979-1.979c0-0.168,0.005-0.336,0.018-0.504c0.012-0.168,0.029-0.336,0.054-0.504l-0.071-0.072
		c-0.648,1.08-1.561,1.914-2.736,2.502c-1.176,0.588-2.412,0.882-3.708,0.882c-0.864,0-1.656-0.096-2.376-0.288
		c-0.72-0.192-1.338-0.491-1.854-0.899c-0.517-0.408-0.924-0.937-1.224-1.584c-0.3-0.648-0.45-1.428-0.45-2.341
		c0-0.983,0.174-1.812,0.522-2.483s0.822-1.225,1.422-1.656s1.284-0.774,2.052-1.026c0.768-0.252,1.572-0.449,2.412-0.594
		c1.224-0.191,2.333-0.281,3.33-0.27c0.996,0.012,1.854-0.078,2.573-0.271c0.744-0.191,1.303-0.54,1.675-1.044
		s0.558-1.368,0.558-2.592c0-0.552-0.126-1.002-0.378-1.35s-0.563-0.618-0.937-0.811c-0.371-0.191-0.791-0.324-1.26-0.396
		c-0.468-0.072-0.917-0.108-1.35-0.108c-0.72,0-1.404,0.072-2.052,0.216c-0.648,0.145-1.236,0.378-1.764,0.702
		c-0.528,0.324-0.966,0.756-1.314,1.296c-0.348,0.54-0.583,1.194-0.702,1.962h-2.268C118.642,91.507,118.948,90.595,119.416,89.827z
		 M129.658,95.587c-0.193,0.216-0.463,0.391-0.811,0.521c-0.348,0.133-0.715,0.234-1.098,0.307c-0.384,0.071-0.774,0.12-1.17,0.144
		c-0.396,0.024-0.738,0.049-1.026,0.072c-0.696,0.048-1.471,0.114-2.322,0.198c-0.852,0.084-1.65,0.264-2.394,0.54
		c-0.744,0.275-1.368,0.684-1.872,1.224c-0.504,0.54-0.756,1.302-0.756,2.286c0,0.6,0.114,1.11,0.342,1.53
		c0.228,0.42,0.534,0.768,0.918,1.044c0.383,0.275,0.828,0.474,1.332,0.594s1.02,0.18,1.548,0.18c1.824,0,3.3-0.491,4.428-1.476
		c1.127-0.984,1.872-2.305,2.232-3.96l0.72-3.132L129.658,95.587z"/>
	<path d="M139.846,87.019l1.188-5.616h2.268l-1.188,5.616h3.708l-0.36,1.908h-3.779l-2.557,11.916
		c-0.096,0.432-0.162,0.762-0.197,0.99c-0.037,0.229-0.055,0.485-0.055,0.773c0,0.337,0.09,0.637,0.27,0.9
		c0.181,0.265,0.486,0.396,0.918,0.396c0.889,0,1.776-0.071,2.664-0.216l-0.396,1.944c-0.384,0.048-0.769,0.084-1.151,0.107
		c-0.385,0.024-0.77,0.036-1.152,0.036c-0.432,0-0.853-0.03-1.26-0.09c-0.408-0.06-0.774-0.186-1.099-0.378
		c-0.323-0.191-0.582-0.462-0.774-0.81c-0.191-0.348-0.287-0.798-0.287-1.351c0-0.191,0.018-0.455,0.054-0.792
		c0.036-0.336,0.103-0.707,0.198-1.116l2.556-12.312h-3.348l0.432-1.908H139.846z"/>
	<path d="M151.473,87.019l-3.996,18.576h-2.231l3.96-18.576H151.473z M153.021,79.891l-0.793,3.636h-2.268l0.792-3.636H153.021z"/>
	<path d="M157.953,87.019l-0.648,3.384h0.072c0.695-1.104,1.626-2.033,2.79-2.79c1.164-0.756,2.442-1.134,3.834-1.134
		c0.815,0,1.565,0.097,2.25,0.288c0.685,0.192,1.278,0.486,1.782,0.882c0.504,0.396,0.894,0.913,1.17,1.548
		c0.275,0.637,0.414,1.398,0.414,2.286c0,0.504-0.096,1.236-0.288,2.196l-2.556,11.916h-2.268l2.592-11.988
		c0.071-0.288,0.131-0.594,0.18-0.918c0.047-0.324,0.072-0.642,0.072-0.954c0-0.623-0.108-1.146-0.324-1.565
		c-0.217-0.42-0.504-0.762-0.864-1.026c-0.36-0.264-0.774-0.455-1.242-0.576c-0.468-0.119-0.954-0.18-1.458-0.18
		c-0.816,0-1.607,0.18-2.376,0.54s-1.476,0.87-2.124,1.53s-1.212,1.464-1.691,2.412c-0.48,0.948-0.841,2.01-1.08,3.186l-2.053,9.54
		h-2.231l3.96-18.576H157.953z"/>
	<path d="M186.141,107.827c-0.48,1.175-1.08,2.142-1.8,2.897s-1.591,1.319-2.61,1.692c-1.02,0.371-2.25,0.558-3.689,0.558
		c-0.961,0-1.867-0.107-2.719-0.324c-0.852-0.216-1.602-0.558-2.25-1.025c-0.647-0.469-1.164-1.087-1.547-1.854
		c-0.385-0.769-0.588-1.704-0.613-2.808h2.232c0,0.792,0.15,1.451,0.45,1.979s0.689,0.948,1.17,1.261
		c0.479,0.312,1.032,0.533,1.656,0.666c0.624,0.131,1.271,0.197,1.944,0.197c0.959,0,1.787-0.156,2.483-0.468
		c0.696-0.312,1.29-0.72,1.782-1.224c0.491-0.504,0.9-1.087,1.224-1.746c0.324-0.66,0.595-1.326,0.81-1.998
		c0.217-0.672,0.396-1.338,0.541-1.998c0.144-0.66,0.287-1.254,0.432-1.782l-0.072-0.072c-0.624,1.104-1.523,1.95-2.699,2.538
		c-1.177,0.589-2.389,0.882-3.637,0.882c-1.104,0-2.088-0.191-2.951-0.575c-0.865-0.384-1.584-0.918-2.16-1.603
		c-0.576-0.684-1.015-1.481-1.314-2.394c-0.301-0.912-0.45-1.908-0.45-2.988c0-1.368,0.216-2.718,0.647-4.05
		c0.433-1.332,1.057-2.525,1.873-3.582c0.815-1.056,1.812-1.908,2.988-2.556c1.175-0.648,2.507-0.973,3.995-0.973
		c0.696,0,1.38,0.09,2.052,0.271c0.672,0.18,1.291,0.449,1.854,0.81s1.038,0.816,1.422,1.368c0.384,0.553,0.636,1.188,0.757,1.908
		h0.071l0.792-3.816h2.088l-3.527,16.632C187.028,105.259,186.621,106.65,186.141,107.827z M174.908,99.69
		c0.192,0.696,0.498,1.314,0.918,1.854s0.941,0.966,1.566,1.277c0.624,0.312,1.368,0.469,2.232,0.469
		c1.152,0,2.184-0.282,3.096-0.847c0.912-0.563,1.691-1.296,2.34-2.195c0.648-0.9,1.14-1.896,1.477-2.988
		c0.336-1.092,0.504-2.154,0.504-3.186c0-0.816-0.09-1.572-0.271-2.269c-0.18-0.695-0.474-1.296-0.882-1.8s-0.936-0.9-1.584-1.188
		s-1.428-0.432-2.34-0.432c-1.152,0-2.185,0.276-3.096,0.828c-0.912,0.553-1.688,1.266-2.322,2.142
		c-0.637,0.877-1.116,1.849-1.44,2.916c-0.323,1.068-0.485,2.131-0.485,3.187C174.621,98.251,174.717,98.995,174.908,99.69z"/>
	<path d="M217.316,79.891l4.68,25.704h-2.556l-1.296-7.992h-11.736l-4.752,7.992h-2.699l15.695-25.704H217.316z M217.785,95.515
		l-2.197-13.536h-0.071l-7.884,13.536H217.785z"/>
	<path d="M245,83.005c-1.416-1.044-3.312-1.566-5.688-1.566c-1.68,0-3.223,0.396-4.626,1.188c-1.404,0.792-2.599,1.83-3.582,3.114
		c-0.984,1.284-1.753,2.754-2.304,4.409c-0.553,1.656-0.828,3.349-0.828,5.076c0,1.32,0.174,2.521,0.521,3.601
		c0.348,1.079,0.869,2.01,1.566,2.79c0.695,0.779,1.566,1.38,2.609,1.8c1.045,0.42,2.25,0.63,3.618,0.63
		c1.416,0,2.706-0.24,3.87-0.72c1.164-0.48,2.184-1.14,3.061-1.98c0.875-0.84,1.596-1.836,2.16-2.988
		c0.562-1.151,0.953-2.399,1.17-3.744h-8.856l0.504-2.088h10.979l-2.699,13.068h-1.656l0.432-4.32h-0.072
		c-1.08,1.729-2.393,2.965-3.941,3.708c-1.549,0.744-3.342,1.116-5.382,1.116c-1.656,0-3.126-0.246-4.41-0.738
		c-1.284-0.491-2.364-1.206-3.24-2.142s-1.542-2.063-1.997-3.384c-0.457-1.32-0.685-2.809-0.685-4.464
		c0-2.064,0.3-4.062,0.899-5.994s1.488-3.642,2.664-5.13s2.634-2.676,4.375-3.564c1.739-0.888,3.762-1.332,6.064-1.332
		c3.264,0,5.754,0.738,7.471,2.214c1.717,1.477,2.621,3.559,2.719,6.246h-2.449C247.172,85.65,246.416,84.049,245,83.005z"/>
</g>
<line fill="none" x1="207.5" y1="8.25" x2="182.75" y2="125"/>
</svg>
